<svg width="157" height="164" viewBox="0 0 157 164" fill="none" xmlns="http://www.w3.org/2000/svg">
<g filter="url(#filter0_d_1_78)">
<path d="M76.2741 1.1547C77.5117 0.440169 79.0365 0.440169 80.2741 1.1547L144.062 37.9824C145.299 38.6969 146.062 40.0174 146.062 41.4465V115.102C146.062 116.531 145.299 117.851 144.062 118.566L80.2741 155.394C79.0365 156.108 77.5117 156.108 76.2741 155.394L12.4867 118.566C11.2491 117.851 10.4867 116.531 10.4867 115.102V41.4465C10.4867 40.0174 11.2491 38.6969 12.4867 37.9824L76.2741 1.1547Z" fill="#181F2D"/>
<path d="M76.5244 1.58789C77.6073 0.962753 78.9416 0.962702 80.0244 1.58789L143.812 38.415C144.894 39.0402 145.561 40.1959 145.562 41.4463V115.102C145.562 116.352 144.894 117.508 143.812 118.133L80.0244 154.961C78.9416 155.586 77.6073 155.586 76.5244 154.961L12.7363 118.133C11.6536 117.508 10.9863 116.352 10.9863 115.102V41.4463C10.9864 40.196 11.6536 39.0402 12.7363 38.415L76.5244 1.58789Z" stroke="url(#paint0_radial_1_78)"/>
</g>
<path d="M76.5245 32.8975C77.6074 32.2724 78.9417 32.2724 80.0245 32.8975L116.696 54.0704C117.779 54.6956 118.446 55.8512 118.446 57.1016V99.4473C118.446 100.698 117.779 101.852 116.696 102.478L80.0245 123.65C78.9416 124.276 77.6074 124.276 76.5245 123.65L39.8517 102.478C38.769 101.852 38.1018 100.698 38.1017 99.4473V57.1016C38.1017 55.8513 38.7688 54.6956 39.8517 54.0704L76.5245 32.8975Z" fill="url(#paint1_radial_1_78)" stroke="#CEB3E7"/>
<defs>
<filter id="filter0_d_1_78" x="6.48676" y="0.618805" width="143.575" height="163.311" filterUnits="userSpaceOnUse" color-interpolation-filters="sRGB">
<feFlood flood-opacity="0" result="BackgroundImageFix"/>
<feColorMatrix in="SourceAlpha" type="matrix" values="0 0 0 0 0 0 0 0 0 0 0 0 0 0 0 0 0 0 127 0" result="hardAlpha"/>
<feOffset dy="4"/>
<feGaussianBlur stdDeviation="2"/>
<feComposite in2="hardAlpha" operator="out"/>
<feColorMatrix type="matrix" values="0 0 0 0 0 0 0 0 0 0 0 0 0 0 0 0 0 0 0.25 0"/>
<feBlend mode="normal" in2="BackgroundImageFix" result="effect1_dropShadow_1_78"/>
<feBlend mode="normal" in="SourceGraphic" in2="effect1_dropShadow_1_78" result="shape"/>
</filter>
<radialGradient id="paint0_radial_1_78" cx="0" cy="0" r="1" gradientUnits="userSpaceOnUse" gradientTransform="translate(204.936 4.2695) rotate(148.717) scale(263.113)">
<stop offset="0.0769231" stop-color="white"/>
<stop offset="0.653846" stop-color="#5E2C90"/>
<stop offset="1" stop-color="#AA87CD"/>
</radialGradient>
<radialGradient id="paint1_radial_1_78" cx="0" cy="0" r="1" gradientUnits="userSpaceOnUse" gradientTransform="translate(78.2741 78.2741) rotate(90) scale(46.9645)">
<stop stop-color="#07141E"/>
<stop offset="1" stop-color="#33253D"/>
</radialGradient>
</defs>
</svg>
