<svg width="81" height="89" viewBox="0 0 81 89" fill="none" xmlns="http://www.w3.org/2000/svg">
<g filter="url(#filter0_d_1_78)">
<path d="M38.5 1.1547C39.7376 0.44017 41.2624 0.440169 42.5 1.1547L73.574 19.0953C74.8116 19.8098 75.574 21.1303 75.574 22.5594V58.4406C75.574 59.8697 74.8116 61.1902 73.574 61.9047L42.5 79.8453C41.2624 80.5598 39.7376 80.5598 38.5 79.8453L7.42597 61.9047C6.18837 61.1902 5.42597 59.8697 5.42597 58.4406V22.5594C5.42597 21.1303 6.18837 19.8098 7.42597 19.0953L38.5 1.1547Z" fill="#181F2D"/>
<path d="M40 3.75293C40.3094 3.5743 40.6906 3.5743 41 3.75293L72.0742 21.6934C72.3835 21.872 72.5742 22.2024 72.5742 22.5596V58.4404C72.5742 58.7976 72.3835 59.128 72.0742 59.3066L41 77.2471C40.6906 77.4257 40.3094 77.4257 40 77.2471L8.92578 59.3066C8.61646 59.128 8.42578 58.7976 8.42578 58.4404V22.5596C8.42578 22.2024 8.61646 21.872 8.92578 21.6934L40 3.75293Z" stroke="url(#paint0_radial_1_78)" stroke-width="6"/>
</g>
<path d="M39.2498 18.6541C40.0233 18.2075 40.9763 18.2075 41.7498 18.6541L58.7947 28.4939C59.5681 28.9405 60.0446 29.766 60.0447 30.659V50.3406C60.0447 51.2337 59.5681 52.0591 58.7947 52.5057L41.7498 62.3465C40.9764 62.7929 40.0232 62.793 39.2498 62.3465L22.2059 52.5057C21.4324 52.0591 20.9559 51.2338 20.9559 50.3406V30.659C20.956 29.766 21.4325 28.9405 22.2059 28.4939L39.2498 18.6541Z" fill="url(#paint1_radial_1_78)" stroke="#CEB3E7" stroke-width="3"/>
<path d="M60.5372 29.2338L40.3582 39.8408M40.3582 39.8408L20.1791 29.2338M40.3582 39.8408V63.6417" stroke="#CEB3E7" stroke-width="2"/>
<defs>
<filter id="filter0_d_1_78" x="1.42596" y="0.618803" width="78.1481" height="87.7624" filterUnits="userSpaceOnUse" color-interpolation-filters="sRGB">
<feFlood flood-opacity="0" result="BackgroundImageFix"/>
<feColorMatrix in="SourceAlpha" type="matrix" values="0 0 0 0 0 0 0 0 0 0 0 0 0 0 0 0 0 0 127 0" result="hardAlpha"/>
<feOffset dy="4"/>
<feGaussianBlur stdDeviation="2"/>
<feComposite in2="hardAlpha" operator="out"/>
<feColorMatrix type="matrix" values="0 0 0 0 0 0 0 0 0 0 0 0 0 0 0 0 0 0 0.25 0"/>
<feBlend mode="normal" in2="BackgroundImageFix" result="effect1_dropShadow_1_78"/>
<feBlend mode="normal" in="SourceGraphic" in2="effect1_dropShadow_1_78" result="shape"/>
</filter>
<radialGradient id="paint0_radial_1_78" cx="0" cy="0" r="1" gradientUnits="userSpaceOnUse" gradientTransform="translate(106.036 2.20909) rotate(148.717) scale(136.138)">
<stop offset="0.0769231" stop-color="white"/>
<stop offset="0.653846" stop-color="#5E2C90"/>
<stop offset="1" stop-color="#AA87CD"/>
</radialGradient>
<radialGradient id="paint1_radial_1_78" cx="0" cy="0" r="1" gradientUnits="userSpaceOnUse" gradientTransform="translate(40.5 40.5) rotate(90) scale(24.3)">
<stop stop-color="#07141E"/>
<stop offset="1" stop-color="#33253D"/>
</radialGradient>
</defs>
</svg>
