<svg width="727" height="164" viewBox="0 0 727 164" fill="none" xmlns="http://www.w3.org/2000/svg">
<path d="M174.792 131C173.427 131 172.232 130.531 171.208 129.592C170.269 128.653 169.8 127.459 169.8 126.008V36.024C169.8 34.6587 170.269 33.5067 171.208 32.568C172.232 31.544 173.427 31.032 174.792 31.032C176.157 31.032 177.309 31.544 178.248 32.568C179.272 33.5067 179.784 34.6587 179.784 36.024V121.528H229.832C231.197 121.528 232.349 121.997 233.288 122.936C234.312 123.789 234.824 124.899 234.824 126.264C234.824 127.629 234.312 128.781 233.288 129.72C232.349 130.573 231.197 131 229.832 131H174.792ZM262.064 131.768C256.005 131.768 250.587 130.531 245.808 128.056C241.029 125.496 237.232 121.784 234.416 116.92C231.685 112.056 230.32 106.125 230.32 99.128V65.848C230.32 64.4827 230.789 63.3307 231.728 62.392C232.667 61.4533 233.819 60.984 235.184 60.984C236.635 60.984 237.829 61.4533 238.768 62.392C239.707 63.3307 240.176 64.4827 240.176 65.848V99.128C240.176 104.419 241.157 108.771 243.12 112.184C245.168 115.597 247.899 118.157 251.312 119.864C254.811 121.571 258.736 122.424 263.088 122.424C267.269 122.424 271.024 121.613 274.352 119.992C277.765 118.371 280.453 116.152 282.416 113.336C284.379 110.52 285.36 107.32 285.36 103.736H292.4C292.144 109.112 290.651 113.933 287.92 118.2C285.275 122.381 281.691 125.709 277.168 128.184C272.645 130.573 267.611 131.768 262.064 131.768ZM290.224 131C288.773 131 287.579 130.573 286.64 129.72C285.787 128.781 285.36 127.544 285.36 126.008V65.848C285.36 64.3973 285.787 63.2453 286.64 62.392C287.579 61.4533 288.773 60.984 290.224 60.984C291.675 60.984 292.869 61.4533 293.808 62.392C294.747 63.2453 295.216 64.3973 295.216 65.848V126.008C295.216 127.544 294.747 128.781 293.808 129.72C292.869 130.573 291.675 131 290.224 131ZM332.177 131.64C325.436 131.64 319.377 130.104 314.001 127.032C308.625 123.875 304.358 119.608 301.201 114.232C298.129 108.856 296.593 102.755 296.593 95.928C296.593 89.1867 298.086 83.128 301.073 77.752C304.145 72.376 308.284 68.152 313.489 65.08C318.694 61.9227 324.582 60.344 331.153 60.344C336.87 60.344 342.033 61.5813 346.641 64.056C351.249 66.4453 354.961 69.6453 357.777 73.656V36.024C357.777 34.488 358.246 33.2933 359.185 32.44C360.124 31.5013 361.318 31.032 362.769 31.032C364.22 31.032 365.414 31.5013 366.353 32.44C367.292 33.2933 367.761 34.488 367.761 36.024V96.44C367.59 103.096 365.926 109.112 362.769 114.488C359.697 119.779 355.473 123.96 350.097 127.032C344.806 130.104 338.833 131.64 332.177 131.64ZM332.177 122.68C337.126 122.68 341.521 121.528 345.361 119.224C349.286 116.835 352.358 113.635 354.577 109.624C356.881 105.613 358.033 101.048 358.033 95.928C358.033 90.8933 356.881 86.3707 354.577 82.36C352.358 78.264 349.286 75.064 345.361 72.76C341.521 70.456 337.126 69.304 332.177 69.304C327.313 69.304 322.918 70.456 318.993 72.76C315.068 75.064 311.953 78.264 309.649 82.36C307.345 86.3707 306.193 90.8933 306.193 95.928C306.193 101.048 307.345 105.613 309.649 109.624C311.953 113.635 315.068 116.835 318.993 119.224C322.918 121.528 327.313 122.68 332.177 122.68ZM404.757 131.64C397.93 131.64 391.829 130.104 386.453 127.032C381.077 123.96 376.853 119.736 373.781 114.36C370.709 108.984 369.173 102.883 369.173 96.056C369.173 89.144 370.709 83 373.781 77.624C376.853 72.248 381.077 68.024 386.453 64.952C391.829 61.88 397.93 60.344 404.757 60.344C411.584 60.344 417.642 61.88 422.933 64.952C428.309 68.024 432.533 72.248 435.605 77.624C438.677 83 440.256 89.144 440.341 96.056C440.341 102.883 438.762 108.984 435.605 114.36C432.533 119.736 428.309 123.96 422.933 127.032C417.642 130.104 411.584 131.64 404.757 131.64ZM404.757 122.68C409.706 122.68 414.144 121.528 418.069 119.224C421.994 116.92 425.066 113.763 427.285 109.752C429.504 105.741 430.613 101.176 430.613 96.056C430.613 90.936 429.504 86.3707 427.285 82.36C425.066 78.264 421.994 75.064 418.069 72.76C414.144 70.456 409.706 69.304 404.757 69.304C399.808 69.304 395.37 70.456 391.445 72.76C387.52 75.064 384.405 78.264 382.101 82.36C379.882 86.3707 378.773 90.936 378.773 96.056C378.773 101.176 379.882 105.741 382.101 109.752C384.405 113.763 387.52 116.92 391.445 119.224C395.37 121.528 399.808 122.68 404.757 122.68ZM501.622 131C500.171 131 498.977 130.531 498.038 129.592C497.099 128.653 496.63 127.501 496.63 126.136V92.856C496.63 87.5653 495.606 83.2133 493.558 79.8C491.595 76.3867 488.865 73.8267 485.366 72.12C481.953 70.4133 478.07 69.56 473.718 69.56C469.537 69.56 465.739 70.3707 462.326 71.992C458.998 73.6133 456.353 75.832 454.39 78.648C452.427 81.464 451.446 84.664 451.446 88.248H444.406C444.577 82.872 446.027 78.0933 448.758 73.912C451.489 69.6453 455.115 66.3173 459.638 63.928C464.161 61.4533 469.195 60.216 474.742 60.216C480.801 60.216 486.219 61.496 490.998 64.056C495.777 66.5307 499.531 70.2 502.262 75.064C505.078 79.928 506.486 85.8587 506.486 92.856V126.136C506.486 127.501 506.017 128.653 505.078 129.592C504.139 130.531 502.987 131 501.622 131ZM446.582 131C445.046 131 443.809 130.573 442.87 129.72C442.017 128.781 441.59 127.587 441.59 126.136V65.976C441.59 64.44 442.017 63.2453 442.87 62.392C443.809 61.4533 445.046 60.984 446.582 60.984C448.033 60.984 449.185 61.4533 450.038 62.392C450.977 63.2453 451.446 64.44 451.446 65.976V126.136C451.446 127.587 450.977 128.781 450.038 129.72C449.185 130.573 448.033 131 446.582 131ZM517.335 131C515.799 131 514.562 130.573 513.623 129.72C512.77 128.781 512.343 127.544 512.343 126.008V65.976C512.343 64.44 512.77 63.2453 513.623 62.392C514.562 61.4533 515.799 60.984 517.335 60.984C518.786 60.984 519.938 61.4533 520.791 62.392C521.73 63.2453 522.199 64.44 522.199 65.976V126.008C522.199 127.544 521.73 128.781 520.791 129.72C519.938 130.573 518.786 131 517.335 131ZM517.207 47.672C515.33 47.672 513.708 46.9893 512.343 45.624C510.978 44.2587 510.295 42.5947 510.295 40.632C510.295 38.4987 510.978 36.8347 512.343 35.64C513.794 34.36 515.458 33.72 517.335 33.72C519.127 33.72 520.706 34.36 522.071 35.64C523.522 36.8347 524.247 38.4987 524.247 40.632C524.247 42.5947 523.564 44.2587 522.199 45.624C520.834 46.9893 519.17 47.672 517.207 47.672ZM559.839 131.768C553.78 131.768 548.362 130.531 543.583 128.056C538.804 125.496 535.007 121.784 532.191 116.92C529.46 112.056 528.095 106.125 528.095 99.128V65.848C528.095 64.4827 528.564 63.3307 529.503 62.392C530.442 61.4533 531.594 60.984 532.959 60.984C534.41 60.984 535.604 61.4533 536.543 62.392C537.482 63.3307 537.951 64.4827 537.951 65.848V99.128C537.951 104.419 538.932 108.771 540.895 112.184C542.943 115.597 545.674 118.157 549.087 119.864C552.586 121.571 556.511 122.424 560.863 122.424C565.044 122.424 568.799 121.613 572.127 119.992C575.54 118.371 578.228 116.152 580.191 113.336C582.154 110.52 583.135 107.32 583.135 103.736H590.175C589.919 109.112 588.426 113.933 585.695 118.2C583.05 122.381 579.466 125.709 574.943 128.184C570.42 130.573 565.386 131.768 559.839 131.768ZM587.999 131C586.548 131 585.354 130.573 584.415 129.72C583.562 128.781 583.135 127.544 583.135 126.008V65.848C583.135 64.3973 583.562 63.2453 584.415 62.392C585.354 61.4533 586.548 60.984 587.999 60.984C589.45 60.984 590.644 61.4533 591.583 62.392C592.522 63.2453 592.991 64.3973 592.991 65.848V126.008C592.991 127.544 592.522 128.781 591.583 129.72C590.644 130.573 589.45 131 587.999 131ZM692.672 131C691.221 131 690.027 130.573 689.088 129.72C688.149 128.781 687.68 127.587 687.68 126.136V89.272C687.68 83.2133 686.101 78.4347 682.944 74.936C679.787 71.352 675.733 69.56 670.784 69.56C665.493 69.56 661.141 71.352 657.728 74.936C654.4 78.4347 652.779 83.128 652.864 89.016H644.032C644.117 83.2987 645.355 78.264 647.744 73.912C650.133 69.56 653.419 66.1893 657.6 63.8C661.781 61.4107 666.517 60.216 671.808 60.216C676.843 60.216 681.28 61.4107 685.12 63.8C689.045 66.1893 692.075 69.56 694.208 73.912C696.427 78.264 697.536 83.384 697.536 89.272V126.136C697.536 127.587 697.067 128.781 696.128 129.72C695.275 130.573 694.123 131 692.672 131ZM603.072 131C601.536 131 600.299 130.573 599.36 129.72C598.507 128.781 598.08 127.587 598.08 126.136V65.976C598.08 64.5253 598.507 63.3307 599.36 62.392C600.299 61.4533 601.536 60.984 603.072 60.984C604.523 60.984 605.675 61.4533 606.528 62.392C607.467 63.3307 607.936 64.5253 607.936 65.976V126.136C607.936 127.587 607.467 128.781 606.528 129.72C605.675 130.573 604.523 131 603.072 131ZM648 131C646.549 131 645.355 130.573 644.416 129.72C643.477 128.781 643.008 127.587 643.008 126.136V89.272C643.008 83.2133 641.429 78.4347 638.272 74.936C635.115 71.352 631.061 69.56 626.112 69.56C620.821 69.56 616.469 71.3093 613.056 74.808C609.643 78.2213 607.936 82.7013 607.936 88.248H600.896C601.067 82.7867 602.261 77.9653 604.48 73.784C606.784 69.5173 609.899 66.1893 613.824 63.8C617.749 61.4107 622.187 60.216 627.136 60.216C632.171 60.216 636.608 61.4107 640.448 63.8C644.373 66.1893 647.403 69.56 649.536 73.912C651.755 78.264 652.864 83.384 652.864 89.272V126.136C652.864 127.587 652.395 128.781 651.456 129.72C650.603 130.573 649.451 131 648 131Z" fill="white"/>
<g filter="url(#filter0_d_1_77)">
<path d="M76.2741 1.1547C77.5117 0.440169 79.0365 0.440169 80.2741 1.1547L144.062 37.9824C145.299 38.6969 146.062 40.0174 146.062 41.4465V115.102C146.062 116.531 145.299 117.851 144.062 118.566L80.2741 155.394C79.0365 156.108 77.5117 156.108 76.2741 155.394L12.4867 118.566C11.2491 117.851 10.4867 116.531 10.4867 115.102V41.4465C10.4867 40.0174 11.2491 38.6969 12.4867 37.9824L76.2741 1.1547Z" fill="#181F2D"/>
<path d="M76.5244 1.58789C77.6073 0.962753 78.9416 0.962702 80.0244 1.58789L143.812 38.415C144.894 39.0402 145.561 40.1959 145.562 41.4463V115.102C145.562 116.352 144.894 117.508 143.812 118.133L80.0244 154.961C78.9416 155.586 77.6073 155.586 76.5244 154.961L12.7363 118.133C11.6536 117.508 10.9863 116.352 10.9863 115.102V41.4463C10.9864 40.196 11.6536 39.0402 12.7363 38.415L76.5244 1.58789Z" stroke="url(#paint0_radial_1_77)"/>
</g>
<path d="M76.5245 32.8975C77.6074 32.2724 78.9417 32.2724 80.0245 32.8975L116.696 54.0704C117.779 54.6956 118.446 55.8512 118.446 57.1016V99.4473C118.446 100.698 117.779 101.852 116.696 102.478L80.0245 123.65C78.9416 124.276 77.6074 124.276 76.5245 123.65L39.8517 102.478C38.769 101.852 38.1018 100.698 38.1017 99.4473V57.1016C38.1017 55.8513 38.7688 54.6956 39.8517 54.0704L76.5245 32.8975Z" fill="url(#paint1_radial_1_77)" stroke="#CEB3E7"/>
<defs>
<filter id="filter0_d_1_77" x="6.48676" y="0.618805" width="143.575" height="163.311" filterUnits="userSpaceOnUse" color-interpolation-filters="sRGB">
<feFlood flood-opacity="0" result="BackgroundImageFix"/>
<feColorMatrix in="SourceAlpha" type="matrix" values="0 0 0 0 0 0 0 0 0 0 0 0 0 0 0 0 0 0 127 0" result="hardAlpha"/>
<feOffset dy="4"/>
<feGaussianBlur stdDeviation="2"/>
<feComposite in2="hardAlpha" operator="out"/>
<feColorMatrix type="matrix" values="0 0 0 0 0 0 0 0 0 0 0 0 0 0 0 0 0 0 0.25 0"/>
<feBlend mode="normal" in2="BackgroundImageFix" result="effect1_dropShadow_1_77"/>
<feBlend mode="normal" in="SourceGraphic" in2="effect1_dropShadow_1_77" result="shape"/>
</filter>
<radialGradient id="paint0_radial_1_77" cx="0" cy="0" r="1" gradientUnits="userSpaceOnUse" gradientTransform="translate(204.936 4.2695) rotate(148.717) scale(263.113)">
<stop offset="0.0769231" stop-color="white"/>
<stop offset="0.653846" stop-color="#5E2C90"/>
<stop offset="1" stop-color="#AA87CD"/>
</radialGradient>
<radialGradient id="paint1_radial_1_77" cx="0" cy="0" r="1" gradientUnits="userSpaceOnUse" gradientTransform="translate(78.2741 78.2741) rotate(90) scale(46.9645)">
<stop stop-color="#07141E"/>
<stop offset="1" stop-color="#33253D"/>
</radialGradient>
</defs>
</svg>
