<svg width="646" height="124" viewBox="0 0 646 124" fill="none" xmlns="http://www.w3.org/2000/svg">
<g filter="url(#filter0_d_1_77)">
<path d="M93.792 113C92.4267 113 91.232 112.531 90.208 111.592C89.2693 110.653 88.8 109.459 88.8 108.008V18.024C88.8 16.6587 89.2693 15.5067 90.208 14.568C91.232 13.544 92.4267 13.032 93.792 13.032C95.1573 13.032 96.3093 13.544 97.248 14.568C98.272 15.5067 98.784 16.6587 98.784 18.024V103.528H148.832C150.197 103.528 151.349 103.997 152.288 104.936C153.312 105.789 153.824 106.899 153.824 108.264C153.824 109.629 153.312 110.781 152.288 111.72C151.349 112.573 150.197 113 148.832 113H93.792ZM181.064 113.768C175.005 113.768 169.587 112.531 164.808 110.056C160.029 107.496 156.232 103.784 153.416 98.92C150.685 94.056 149.32 88.1253 149.32 81.128V47.848C149.32 46.4827 149.789 45.3307 150.728 44.392C151.667 43.4533 152.819 42.984 154.184 42.984C155.635 42.984 156.829 43.4533 157.768 44.392C158.707 45.3307 159.176 46.4827 159.176 47.848V81.128C159.176 86.4187 160.157 90.7707 162.12 94.184C164.168 97.5973 166.899 100.157 170.312 101.864C173.811 103.571 177.736 104.424 182.088 104.424C186.269 104.424 190.024 103.613 193.352 101.992C196.765 100.371 199.453 98.152 201.416 95.336C203.379 92.52 204.36 89.32 204.36 85.736H211.4C211.144 91.112 209.651 95.9333 206.92 100.2C204.275 104.381 200.691 107.709 196.168 110.184C191.645 112.573 186.611 113.768 181.064 113.768ZM209.224 113C207.773 113 206.579 112.573 205.64 111.72C204.787 110.781 204.36 109.544 204.36 108.008V47.848C204.36 46.3973 204.787 45.2453 205.64 44.392C206.579 43.4533 207.773 42.984 209.224 42.984C210.675 42.984 211.869 43.4533 212.808 44.392C213.747 45.2453 214.216 46.3973 214.216 47.848V108.008C214.216 109.544 213.747 110.781 212.808 111.72C211.869 112.573 210.675 113 209.224 113ZM251.177 113.64C244.436 113.64 238.377 112.104 233.001 109.032C227.625 105.875 223.358 101.608 220.201 96.232C217.129 90.856 215.593 84.7547 215.593 77.928C215.593 71.1867 217.086 65.128 220.073 59.752C223.145 54.376 227.284 50.152 232.489 47.08C237.694 43.9227 243.582 42.344 250.153 42.344C255.87 42.344 261.033 43.5813 265.641 46.056C270.249 48.4453 273.961 51.6453 276.777 55.656V18.024C276.777 16.488 277.246 15.2933 278.185 14.44C279.124 13.5013 280.318 13.032 281.769 13.032C283.22 13.032 284.414 13.5013 285.353 14.44C286.292 15.2933 286.761 16.488 286.761 18.024V78.44C286.59 85.096 284.926 91.112 281.769 96.488C278.697 101.779 274.473 105.96 269.097 109.032C263.806 112.104 257.833 113.64 251.177 113.64ZM251.177 104.68C256.126 104.68 260.521 103.528 264.361 101.224C268.286 98.8347 271.358 95.6347 273.577 91.624C275.881 87.6133 277.033 83.048 277.033 77.928C277.033 72.8933 275.881 68.3707 273.577 64.36C271.358 60.264 268.286 57.064 264.361 54.76C260.521 52.456 256.126 51.304 251.177 51.304C246.313 51.304 241.918 52.456 237.993 54.76C234.068 57.064 230.953 60.264 228.649 64.36C226.345 68.3707 225.193 72.8933 225.193 77.928C225.193 83.048 226.345 87.6133 228.649 91.624C230.953 95.6347 234.068 98.8347 237.993 101.224C241.918 103.528 246.313 104.68 251.177 104.68ZM323.757 113.64C316.93 113.64 310.829 112.104 305.453 109.032C300.077 105.96 295.853 101.736 292.781 96.36C289.709 90.984 288.173 84.8827 288.173 78.056C288.173 71.144 289.709 65 292.781 59.624C295.853 54.248 300.077 50.024 305.453 46.952C310.829 43.88 316.93 42.344 323.757 42.344C330.584 42.344 336.642 43.88 341.933 46.952C347.309 50.024 351.533 54.248 354.605 59.624C357.677 65 359.256 71.144 359.341 78.056C359.341 84.8827 357.762 90.984 354.605 96.36C351.533 101.736 347.309 105.96 341.933 109.032C336.642 112.104 330.584 113.64 323.757 113.64ZM323.757 104.68C328.706 104.68 333.144 103.528 337.069 101.224C340.994 98.92 344.066 95.7627 346.285 91.752C348.504 87.7413 349.613 83.176 349.613 78.056C349.613 72.936 348.504 68.3707 346.285 64.36C344.066 60.264 340.994 57.064 337.069 54.76C333.144 52.456 328.706 51.304 323.757 51.304C318.808 51.304 314.37 52.456 310.445 54.76C306.52 57.064 303.405 60.264 301.101 64.36C298.882 68.3707 297.773 72.936 297.773 78.056C297.773 83.176 298.882 87.7413 301.101 91.752C303.405 95.7627 306.52 98.92 310.445 101.224C314.37 103.528 318.808 104.68 323.757 104.68ZM420.622 113C419.171 113 417.977 112.531 417.038 111.592C416.099 110.653 415.63 109.501 415.63 108.136V74.856C415.63 69.5653 414.606 65.2133 412.558 61.8C410.595 58.3867 407.865 55.8267 404.366 54.12C400.953 52.4133 397.07 51.56 392.718 51.56C388.537 51.56 384.739 52.3707 381.326 53.992C377.998 55.6133 375.353 57.832 373.39 60.648C371.427 63.464 370.446 66.664 370.446 70.248H363.406C363.577 64.872 365.027 60.0933 367.758 55.912C370.489 51.6453 374.115 48.3173 378.638 45.928C383.161 43.4533 388.195 42.216 393.742 42.216C399.801 42.216 405.219 43.496 409.998 46.056C414.777 48.5307 418.531 52.2 421.262 57.064C424.078 61.928 425.486 67.8587 425.486 74.856V108.136C425.486 109.501 425.017 110.653 424.078 111.592C423.139 112.531 421.987 113 420.622 113ZM365.582 113C364.046 113 362.809 112.573 361.87 111.72C361.017 110.781 360.59 109.587 360.59 108.136V47.976C360.59 46.44 361.017 45.2453 361.87 44.392C362.809 43.4533 364.046 42.984 365.582 42.984C367.033 42.984 368.185 43.4533 369.038 44.392C369.977 45.2453 370.446 46.44 370.446 47.976V108.136C370.446 109.587 369.977 110.781 369.038 111.72C368.185 112.573 367.033 113 365.582 113ZM436.335 113C434.799 113 433.562 112.573 432.623 111.72C431.77 110.781 431.343 109.544 431.343 108.008V47.976C431.343 46.44 431.77 45.2453 432.623 44.392C433.562 43.4533 434.799 42.984 436.335 42.984C437.786 42.984 438.938 43.4533 439.791 44.392C440.73 45.2453 441.199 46.44 441.199 47.976V108.008C441.199 109.544 440.73 110.781 439.791 111.72C438.938 112.573 437.786 113 436.335 113ZM436.207 29.672C434.33 29.672 432.708 28.9893 431.343 27.624C429.978 26.2587 429.295 24.5947 429.295 22.632C429.295 20.4987 429.978 18.8347 431.343 17.64C432.794 16.36 434.458 15.72 436.335 15.72C438.127 15.72 439.706 16.36 441.071 17.64C442.522 18.8347 443.247 20.4987 443.247 22.632C443.247 24.5947 442.564 26.2587 441.199 27.624C439.834 28.9893 438.17 29.672 436.207 29.672ZM478.839 113.768C472.78 113.768 467.362 112.531 462.583 110.056C457.804 107.496 454.007 103.784 451.191 98.92C448.46 94.056 447.095 88.1253 447.095 81.128V47.848C447.095 46.4827 447.564 45.3307 448.503 44.392C449.442 43.4533 450.594 42.984 451.959 42.984C453.41 42.984 454.604 43.4533 455.543 44.392C456.482 45.3307 456.951 46.4827 456.951 47.848V81.128C456.951 86.4187 457.932 90.7707 459.895 94.184C461.943 97.5973 464.674 100.157 468.087 101.864C471.586 103.571 475.511 104.424 479.863 104.424C484.044 104.424 487.799 103.613 491.127 101.992C494.54 100.371 497.228 98.152 499.191 95.336C501.154 92.52 502.135 89.32 502.135 85.736H509.175C508.919 91.112 507.426 95.9333 504.695 100.2C502.05 104.381 498.466 107.709 493.943 110.184C489.42 112.573 484.386 113.768 478.839 113.768ZM506.999 113C505.548 113 504.354 112.573 503.415 111.72C502.562 110.781 502.135 109.544 502.135 108.008V47.848C502.135 46.3973 502.562 45.2453 503.415 44.392C504.354 43.4533 505.548 42.984 506.999 42.984C508.45 42.984 509.644 43.4533 510.583 44.392C511.522 45.2453 511.991 46.3973 511.991 47.848V108.008C511.991 109.544 511.522 110.781 510.583 111.72C509.644 112.573 508.45 113 506.999 113ZM611.672 113C610.221 113 609.027 112.573 608.088 111.72C607.149 110.781 606.68 109.587 606.68 108.136V71.272C606.68 65.2133 605.101 60.4347 601.944 56.936C598.787 53.352 594.733 51.56 589.784 51.56C584.493 51.56 580.141 53.352 576.728 56.936C573.4 60.4347 571.779 65.128 571.864 71.016H563.032C563.117 65.2987 564.355 60.264 566.744 55.912C569.133 51.56 572.419 48.1893 576.6 45.8C580.781 43.4107 585.517 42.216 590.808 42.216C595.843 42.216 600.28 43.4107 604.12 45.8C608.045 48.1893 611.075 51.56 613.208 55.912C615.427 60.264 616.536 65.384 616.536 71.272V108.136C616.536 109.587 616.067 110.781 615.128 111.72C614.275 112.573 613.123 113 611.672 113ZM522.072 113C520.536 113 519.299 112.573 518.36 111.72C517.507 110.781 517.08 109.587 517.08 108.136V47.976C517.08 46.5253 517.507 45.3307 518.36 44.392C519.299 43.4533 520.536 42.984 522.072 42.984C523.523 42.984 524.675 43.4533 525.528 44.392C526.467 45.3307 526.936 46.5253 526.936 47.976V108.136C526.936 109.587 526.467 110.781 525.528 111.72C524.675 112.573 523.523 113 522.072 113ZM567 113C565.549 113 564.355 112.573 563.416 111.72C562.477 110.781 562.008 109.587 562.008 108.136V71.272C562.008 65.2133 560.429 60.4347 557.272 56.936C554.115 53.352 550.061 51.56 545.112 51.56C539.821 51.56 535.469 53.3093 532.056 56.808C528.643 60.2213 526.936 64.7013 526.936 70.248H519.896C520.067 64.7867 521.261 59.9653 523.48 55.784C525.784 51.5173 528.899 48.1893 532.824 45.8C536.749 43.4107 541.187 42.216 546.136 42.216C551.171 42.216 555.608 43.4107 559.448 45.8C563.373 48.1893 566.403 51.56 568.536 55.912C570.755 60.264 571.864 65.384 571.864 71.272V108.136C571.864 109.587 571.395 110.781 570.456 111.72C569.603 112.573 568.451 113 567 113Z" fill="white"/>
</g>
<g filter="url(#filter1_d_1_77)">
<path d="M38.5 33.1547C39.7376 32.4402 41.2624 32.4402 42.5 33.1547L73.574 51.0953C74.8116 51.8098 75.574 53.1303 75.574 54.5594V90.4406C75.574 91.8697 74.8116 93.1902 73.574 93.9047L42.5 111.845C41.2624 112.56 39.7376 112.56 38.5 111.845L7.42597 93.9047C6.18837 93.1902 5.42597 91.8697 5.42597 90.4406V54.5594C5.42597 53.1303 6.18837 51.8098 7.42597 51.0953L38.5 33.1547Z" fill="#181F2D"/>
<path d="M40 35.7529C40.3094 35.5743 40.6906 35.5743 41 35.7529L72.0742 53.6934C72.3835 53.872 72.5742 54.2024 72.5742 54.5596V90.4404C72.5742 90.7976 72.3835 91.128 72.0742 91.3066L41 109.247C40.6906 109.426 40.3094 109.426 40 109.247L8.92578 91.3066C8.61646 91.128 8.42578 90.7976 8.42578 90.4404V54.5596C8.42578 54.2024 8.61646 53.872 8.92578 53.6934L40 35.7529Z" stroke="url(#paint0_radial_1_77)" stroke-width="6"/>
</g>
<path d="M39.2498 50.6541C40.0233 50.2075 40.9763 50.2075 41.7498 50.6541L58.7947 60.4939C59.5681 60.9405 60.0446 61.766 60.0447 62.659V82.3406C60.0447 83.2337 59.5681 84.0591 58.7947 84.5057L41.7498 94.3465C40.9764 94.7929 40.0232 94.793 39.2498 94.3465L22.2059 84.5057C21.4324 84.0591 20.9559 83.2338 20.9559 82.3406V62.659C20.956 61.766 21.4325 60.9405 22.2059 60.4939L39.2498 50.6541Z" fill="url(#paint1_radial_1_77)" stroke="#CEB3E7" stroke-width="3"/>
<path d="M60.5372 61.2338L40.3582 71.8408M40.3582 71.8408L20.1791 61.2338M40.3582 71.8408V95.6417" stroke="#CEB3E7" stroke-width="2"/>
<defs>
<filter id="filter0_d_1_77" x="81.1" y="7.332" width="543.136" height="116.136" filterUnits="userSpaceOnUse" color-interpolation-filters="sRGB">
<feFlood flood-opacity="0" result="BackgroundImageFix"/>
<feColorMatrix in="SourceAlpha" type="matrix" values="0 0 0 0 0 0 0 0 0 0 0 0 0 0 0 0 0 0 127 0" result="hardAlpha"/>
<feOffset dy="2"/>
<feGaussianBlur stdDeviation="3.85"/>
<feComposite in2="hardAlpha" operator="out"/>
<feColorMatrix type="matrix" values="0 0 0 0 0 0 0 0 0 0 0 0 0 0 0 0 0 0 0.25 0"/>
<feBlend mode="normal" in2="BackgroundImageFix" result="effect1_dropShadow_1_77"/>
<feBlend mode="normal" in="SourceGraphic" in2="effect1_dropShadow_1_77" result="shape"/>
</filter>
<filter id="filter1_d_1_77" x="1.42596" y="32.6188" width="78.1481" height="87.7624" filterUnits="userSpaceOnUse" color-interpolation-filters="sRGB">
<feFlood flood-opacity="0" result="BackgroundImageFix"/>
<feColorMatrix in="SourceAlpha" type="matrix" values="0 0 0 0 0 0 0 0 0 0 0 0 0 0 0 0 0 0 127 0" result="hardAlpha"/>
<feOffset dy="4"/>
<feGaussianBlur stdDeviation="2"/>
<feComposite in2="hardAlpha" operator="out"/>
<feColorMatrix type="matrix" values="0 0 0 0 0 0 0 0 0 0 0 0 0 0 0 0 0 0 0.25 0"/>
<feBlend mode="normal" in2="BackgroundImageFix" result="effect1_dropShadow_1_77"/>
<feBlend mode="normal" in="SourceGraphic" in2="effect1_dropShadow_1_77" result="shape"/>
</filter>
<radialGradient id="paint0_radial_1_77" cx="0" cy="0" r="1" gradientUnits="userSpaceOnUse" gradientTransform="translate(106.036 34.2091) rotate(148.717) scale(136.138)">
<stop offset="0.0769231" stop-color="white"/>
<stop offset="0.653846" stop-color="#5E2C90"/>
<stop offset="1" stop-color="#AA87CD"/>
</radialGradient>
<radialGradient id="paint1_radial_1_77" cx="0" cy="0" r="1" gradientUnits="userSpaceOnUse" gradientTransform="translate(40.5 72.5) rotate(90) scale(24.3)">
<stop stop-color="#07141E"/>
<stop offset="1" stop-color="#33253D"/>
</radialGradient>
</defs>
</svg>
